<svg width="80" height="80" viewBox="0 0 80 80" xmlns="http://www.w3.org/2000/svg">
  <defs>
    <linearGradient id="logoGradient" x1="0%" y1="0%" x2="100%" y2="100%">
      <stop offset="0%" style="stop-color:#667eea;stop-opacity:1" />
      <stop offset="100%" style="stop-color:#764ba2;stop-opacity:1" />
    </linearGradient>
    <filter id="glow">
      <feGaussianBlur stdDeviation="3" result="coloredBlur"/>
      <feMerge> 
        <feMergeNode in="coloredBlur"/>
        <feMergeNode in="SourceGraphic"/>
      </feMerge>
    </filter>
  </defs>
  
  <!-- Background circle -->
  <circle cx="40" cy="40" r="36" fill="url(#logoGradient)" filter="url(#glow)"/>
  
  <!-- Book icon -->
  <g transform="translate(22, 22)">
    <!-- Book spine -->
    <rect x="0" y="4" width="4" height="28" fill="white" opacity="0.9"/>
    
    <!-- Book pages -->
    <rect x="4" y="0" width="32" height="36" rx="2" fill="white" opacity="0.95"/>
    
    <!-- Book binding line -->
    <line x1="8" y1="0" x2="8" y2="36" stroke="#667eea" stroke-width="1" opacity="0.7"/>
    
    <!-- Text lines representing content -->
    <g opacity="0.6">
      <line x1="12" y1="8" x2="30" y2="8" stroke="#667eea" stroke-width="1.5"/>
      <line x1="12" y1="12" x2="28" y2="12" stroke="#667eea" stroke-width="1.5"/>
      <line x1="12" y1="16" x2="32" y2="16" stroke="#667eea" stroke-width="1.5"/>
      <line x1="12" y1="20" x2="26" y2="20" stroke="#667eea" stroke-width="1.5"/>
      <line x1="12" y1="24" x2="30" y2="24" stroke="#667eea" stroke-width="1.5"/>
      <line x1="12" y1="28" x2="28" y2="28" stroke="#667eea" stroke-width="1.5"/>
    </g>
    
    <!-- Small star accent -->
    <polygon points="20,6 21,8 23,8 21.5,9.5 22,11.5 20,10.5 18,11.5 18.5,9.5 17,8 19,8" 
             fill="#FFD700" opacity="0.8"/>
  </g>
</svg>
